# xmcd CD database file
# Copyright (C) 1996 Ti Kan
#
# Track frame offsets:
#	150
#	21247
#	24617
#	28418
#	32235
#	49194
#	64833
#	71705
#	100477
#	112985
#	121679
#	129555
#	134896
#	139138
#	145689
#	160185
#	162601
#	165630
#	189509
#	217494
#	227452
# Disc length: 3091 seconds
#
# Revision: 1
# Processed by: cddbd v1.4PL0 Copyright (c) Steve Scherf et al.
# Submitted via: CDCOPY 4.744
#
DISCID=430c1115
DTITLE=Lutz Ulbrich - Kurzmusiken
DYEAR=1900
DGENRE=
TTITLE0=Oase
TTITLE1=Astral
TTITLE2=Strangeland
TTITLE3=Hubschrauber
TTITLE4=Ideal
TTITLE5=Wüstenstaub
TTITLE6=Märchen
TTITLE7=Geist
TTITLE8=Wunderland
TTITLE9=Tropfen
TTITLE10=Wüstenschiff
TTITLE11=Undine
TTITLE12=Pomp
TTITLE13=Danger
TTITLE14=Arpeggiator
TTITLE15=Babylon
TTITLE16=Spieldose
TTITLE17=Nacht
TTITLE18=Moab-Jam
TTITLE19=Weite Wüste
TTITLE20=Banjo Tanz
EXTD=
EXTT0=
EXTT1=
EXTT2=
EXTT3=
EXTT4=
EXTT5=
EXTT6=
EXTT7=
EXTT8=
EXTT9=
EXTT10=
EXTT11=
EXTT12=
EXTT13=
EXTT14=
EXTT15=
EXTT16=
EXTT17=
EXTT18=
EXTT19=
EXTT20=
PLAYORDER=
